<svg width="160" height="36" xmlns="http://www.w3.org/2000/svg">

 <g>
  <title>Layer 1</title>
  <path id="svg_1" d="m30.409,30.407c-3.214,3.215 -7.731,5.086 -12.276,5.086s-9.062,-1.871 -12.275,-5.086c-3.213,-3.213 -5.084,-7.729 -5.084,-12.273c0,-4.546 1.871,-9.062 5.084,-12.275s7.73,-5.084 12.275,-5.084s9.062,1.871 12.276,5.084c3.213,3.213 5.084,7.729 5.084,12.275c0,4.543 -1.871,9.06 -5.084,12.273zm0.546,-25.096c-3.357,-3.356 -8.075,-5.311 -12.822,-5.311s-9.465,1.955 -12.821,5.311c-3.357,3.356 -5.312,8.075 -5.312,12.823c0,4.746 1.955,9.464 5.312,12.82c3.356,3.357 8.074,5.312 12.821,5.312c4.748,0 9.465,-1.953 12.822,-5.312c3.356,-3.356 5.311,-8.074 5.311,-12.82c0,-4.748 -1.955,-9.467 -5.311,-12.823z" fill="#273691"/>
  <path id="svg_2" d="m17.136,17.557l0,1.151l0.997,0.576l0.997,-0.576l0,-1.151l-0.997,-0.576l-0.997,0.576zm1.864,-2.758l0,-2.446a0.879,0.879 0 0 0 -0.254,-0.613c-0.16,-0.161 -0.386,-0.253 -0.613,-0.253s-0.452,0.093 -0.612,0.253a0.876,0.876 0 0 0 -0.254,0.613l0,2.446l0.867,0.5l0.866,-0.5zm-6.307,5.473a0.88,0.88 0 0 0 -0.404,0.525a0.87,0.87 0 0 0 0.613,1.061a0.884,0.884 0 0 0 0.658,-0.086l2.118,-1.223l0,-1l-0.867,-0.5l-2.118,1.223zm10.879,0l-2.118,-1.223l-0.867,0.5l0,1.002l2.118,1.223a0.878,0.878 0 0 0 0.658,0.086a0.875,0.875 0 0 0 0.526,-0.404a0.872,0.872 0 0 0 -0.317,-1.184z" fill="#273691"/>
  <path id="svg_3" d="m30.661,25.544a0.27,0.27 0 0 1 -0.161,0.021l-3.808,-0.713a0.436,0.436 0 0 1 -0.354,-0.394a1.365,1.365 0 0 0 -0.302,-0.748a1.35,1.35 0 0 0 -1.482,-0.411a3.408,3.408 0 0 1 -2.837,-0.263l-1.128,-0.649l0,7.409l-1.589,0l0,-8.327l-0.867,-0.5l-0.867,0.5l0,8.327l-1.588,0l0,-7.409l-1.129,0.649a3.403,3.403 0 0 1 -2.837,0.263a1.34,1.34 0 0 0 -1.783,1.159a0.436,0.436 0 0 1 -0.353,0.394l-3.809,0.713a0.27,0.27 0 0 1 -0.316,-0.287a0.272,0.272 0 0 1 0.063,-0.15l2.521,-2.94a0.433,0.433 0 0 1 0.517,-0.111c0.247,0.117 0.529,0.156 0.798,0.111s0.523,-0.174 0.718,-0.365c0.195,-0.19 0.329,-0.443 0.38,-0.711a3.399,3.399 0 0 1 1.646,-2.326l1.129,-0.65l-6.418,-3.705l0.794,-1.375l7.212,4.164l0.867,-0.5l0,-1.001l-7.212,-4.164l0.793,-1.375l6.418,3.705l0,-1.305c0,-0.489 0.107,-0.979 0.311,-1.425c0.206,-0.445 0.507,-0.845 0.879,-1.164a1.35,1.35 0 0 0 0.384,-1.49a1.361,1.361 0 0 0 -0.496,-0.635a0.44,0.44 0 0 1 -0.164,-0.504l1.287,-3.654a0.27,0.27 0 0 1 0.253,-0.179a0.27,0.27 0 0 1 0.253,0.179l1.288,3.654a0.44,0.44 0 0 1 -0.164,0.504a1.347,1.347 0 0 0 -0.538,1.441c0.068,0.264 0.219,0.506 0.426,0.684a3.416,3.416 0 0 1 1.191,2.589l0,1.304l6.418,-3.705l0.794,1.375l-7.212,4.164l0,1.001l0.867,0.5l7.212,-4.164l0.794,1.375l-6.417,3.705l1.129,0.65a3.42,3.42 0 0 1 1.647,2.326c0.05,0.268 0.185,0.521 0.379,0.711c0.195,0.191 0.45,0.32 0.718,0.365c0.27,0.045 0.552,0.006 0.798,-0.111a0.434,0.434 0 0 1 0.517,0.111l2.521,2.94a0.27,0.27 0 0 1 0.028,0.308a0.252,0.252 0 0 1 -0.119,0.109zm-1.638,-18.302c-2.851,-2.852 -6.858,-4.511 -10.891,-4.511c-4.032,0 -8.039,1.66 -10.891,4.511c-2.852,2.852 -4.511,6.859 -4.511,10.892c0,4.031 1.659,8.04 4.511,10.892c2.852,2.85 6.859,4.51 10.891,4.51s8.04,-1.66 10.891,-4.51c2.852,-2.852 4.512,-6.859 4.512,-10.892s-1.66,-8.04 -4.512,-10.892zm93.611,26.001l0,-30.221l5.291,0l0,11.584l5.794,0l0,-11.584l5.409,0l0,30.221l-5.409,0l0,-13.269l-5.794,0l0,13.269l-5.291,0zm-77.402,-11.689l-5.875,-18.532l5.28,0l3.617,11.774l3.998,-11.774l4.948,0l-6.09,17.93l0,12.291l-5.878,0l0,-11.689zm31.433,11.689l4.739,0l0,-22.78l4.043,19.804l4.425,0l3.586,-20.124l0,23.1l5.556,0l0,-30.221l-8.61,0l-2.537,14.376l-2.94,-14.376l-8.262,0l0,30.221zm71.792,-12.069l2.253,-13.516l2.185,13.516l-4.438,0zm6.797,-18.152l-8.184,0l-5.524,30.221l4.897,0l1.173,-7.033l6.093,0l1.139,7.033l5.395,0l-4.989,-30.221zm-46.913,18.152l2.253,-13.516l2.186,13.516l-4.439,0zm6.798,-18.152l-8.184,0l-5.523,30.221l4.897,0l1.172,-7.033l6.092,0l1.138,7.033l5.396,0l-4.988,-30.221zm-52.767,18.152l2.253,-13.516l2.186,13.516l-4.439,0zm6.798,-18.152l-8.184,0l-5.524,30.221l4.899,0l1.172,-7.033l6.092,0l1.138,7.033l5.395,0l-4.988,-30.221z" fill="#000000"/>
 </g>
</svg>