<svg width="2478" height="306" xmlns="http://www.w3.org/2000/svg">

 <g>
  <title>Layer 1</title>
  <path id="svg_1" fill="#000000" d="m577.65501,112.84095l-209.242,0l-7.474,5.979l0,186.075l57.542,0l0,-70.246l5.23,-5.23l153.942,0c38.858,0 56.794,-10.461 56.794,-37.363l0,-42.596c0.002,-26.157 -17.934,-36.619 -56.792,-36.619m0,68.75c0,12.703 -8.221,14.945 -26.903,14.945l-126.292,0l-5.979,-5.23l0,-39.606l5.23,-5.231l127.039,0c17.936,0 26.902,2.242 26.902,14.945l0.003,20.177zm162.909,-33.628l50.068,73.234l-2.989,6.726l-110.599,0l-28.397,35.123l164.403,0l11.957,6.725l25.408,35.123l66.509,0l-145.721,-194.295m629.217,156.93l0,-52.309l5.979,-5.232l111.347,0l0,-32.881l-176.362,0l0,127.787l260.058,0l0,-32.881l-194.296,0m-65.762,-159.172l262.299,0l0,35.87l-262.299,0l0,-35.87zm-292.189,34.375l211.482,0c-2.989,-26.902 -20.177,-34.375 -62.025,-34.375l-151.699,0c-47.826,0 -62.772,8.968 -62.772,45.584l0,101.631c0,35.871 14.946,45.586 62.772,45.586l151.699,0c42.596,0 59.036,-8.221 60.531,-35.871l-209.988,0l-5.979,-5.979l0,-112.092m-824.261,35.87l-153.194,0l-4.484,-5.23l0,-32.881l4.484,-3.736l206.999,0l2.989,-6.726c-6.726,-17.936 -25.408,-26.902 -59.036,-26.902l-144.227,0c-47.826,0 -62.772,8.967 -62.772,45.583l0,21.672c0,35.871 14.946,45.586 62.772,45.586l153.195,0l4.483,4.482l0,34.375l-3.736,5.232l-221.198,0s-5.23,2.988 -5.23,3.736c3.736,25.408 20.924,32.133 62.024,32.133l156.932,0c47.826,0 63.52,-8.967 63.52,-45.584l0,-26.156c-0.001,-35.869 -15.694,-45.584 -63.521,-45.584m1549.879,-75.476l-86.686,0l-4.483,8.967l95.652,70.246c17.936,-10.463 38.112,-20.924 59.036,-31.387m14.199,83.697l84.444,61.277l86.686,0l3.736,-8.221l-125.545,-91.916c-16.44,12.703 -33.627,25.408 -49.321,38.86"/>
  <path id="svg_2" fill="#000000" d="m1756.13001,304.89395l-78.465,0l-6.727,-10.463c53.059,-51.562 290.696,-271.265 807.074,-294.431c0.001,0 -432.681,14.945 -721.882,304.894"/>
 </g>
</svg>