<svg xmlns="http://www.w3.org/2000/svg" version="1.1" xmlns:xlink="http://www.w3.org/1999/xlink" xmlns:svgjs="http://svgjs.dev/svgjs" width="1440" height="560" preserveAspectRatio="none" viewBox="0 0 1440 560"><g mask="url(&quot;#SvgjsMask1000&quot;)" fill="none"><rect width="1440" height="560" x="0" y="0" fill="#1e3266"></rect><path d="M1512 560L0 560 L0 358.49Q37.56 324.06, 72 361.62Q89.06 306.68, 144 323.74Q183.72 243.46, 264 283.17Q337.16 236.33, 384 309.49Q464.97 270.46, 504 351.43Q577.22 304.65, 624 377.87Q635.87 317.74, 696 329.6Q737.55 251.15, 816 292.71Q904.93 261.64, 936 350.57Q980.31 274.88, 1056 319.18Q1099.06 290.24, 1128 333.3Q1209.92 295.23, 1248 377.15Q1277.39 286.54, 1368 315.94Q1417.79 293.73, 1440 343.51Q1448.04 279.54, 1512 287.58z" fill="#182f5d"></path><path d="M1512 560L0 560 L0 445.38Q44.43 369.81, 120 414.24Q161.89 384.13, 192 426.02Q210.43 372.44, 264 390.87Q293.64 348.51, 336 378.15Q388.6 358.75, 408 411.34Q458.29 389.63, 480 439.91Q490.27 378.18, 552 388.45Q626.61 343.06, 672 417.66Q675 348.66, 744 351.66Q803.84 291.5, 864 351.34Q905.98 321.32, 936 363.3Q1006.97 362.27, 1008 433.24Q1062.38 367.62, 1128 422Q1154.64 376.64, 1200 403.29Q1257.45 388.74, 1272 446.19Q1289.5 343.69, 1392 361.19Q1460.05 309.24, 1512 377.29z" fill="#25467d"></path><path d="M1512 560L0 560 L0 502.27Q21.42 403.69, 120 425.11Q187.32 372.44, 240 439.76Q331.9 411.66, 360 503.56Q381.69 453.25, 432 474.93Q459.32 430.25, 504 457.57Q585.5 419.07, 624 500.58Q669.16 425.74, 744 470.9Q786.53 441.43, 816 483.96Q848.19 396.15, 936 428.34Q1015.41 387.75, 1056 467.17Q1084.11 423.28, 1128 451.39Q1152.95 404.35, 1200 429.3Q1290.98 400.28, 1320 491.26Q1363.92 463.19, 1392 507.11Q1413.44 408.56, 1512 430z" fill="#356cb1"></path><path d="M1512 560L0 560 L0 500.51Q85.92 466.43, 120 552.35Q148.53 508.88, 192 537.42Q245.58 519, 264 572.58Q318.09 506.67, 384 560.77Q385.12 489.89, 456 491.01Q519.58 482.59, 528 546.16Q606.59 504.75, 648 583.34Q662.39 477.74, 768 492.13Q835.4 439.53, 888 506.93Q963.95 510.88, 960 586.83Q950.16 504.99, 1032 495.15Q1097.63 488.78, 1104 554.42Q1122.02 500.44, 1176 518.47Q1260.52 482.99, 1296 567.51Q1337.66 537.17, 1368 578.83Q1391.45 530.28, 1440 553.72Q1464.56 506.28, 1512 530.83z" fill="white"></path></g><defs><mask id="SvgjsMask1000"><rect width="1440" height="560" fill="#ffffff"></rect></mask></defs></svg>