<svg width="57" height="23" xmlns="http://www.w3.org/2000/svg">

 <g>
  <title>Layer 1</title>
  <path id="svg_1" fill="#000000" d="m45.25,0.001l-1.219,0.843c-0.31,0.469 -0.533,0.923 -0.843,1.313c-0.134,0.042 -0.28,0.065 -0.438,0.094c-0.548,0.093 -0.81,-0.244 -1.313,-0.407c-0.888,-0.297 -1.396,-0.5 -2.124,-0.937l-1.188,0.844c-0.465,0.455 -0.2,0.875 -0.25,1.375c-1.18,-0.593 -2.024,-1.043 -3.594,-1.126l-1.218,0.813c-0.11,0.693 -0.359,1.221 -0.813,1.719c-0.677,-0.025 -1.402,-0.983 -2.375,-1.157c-0.345,-0.061 -0.608,-0.015 -0.813,0.126l-1.187,0.843c-0.2,0.137 -0.374,0.346 -0.531,0.563c-0.04,0.055 -0.084,0.1 -0.125,0.156c-0.005,0 0.08,0.445 0.656,-0.219c0.254,-0.174 0.452,-0.416 0.625,-0.656c0.055,0.003 0.095,-0.011 0.156,0c1.181,0.21 2.014,1.582 2.813,1.031l1.218,-0.843c0.018,-0.012 0.046,-0.018 0.063,-0.032c0.62,-0.489 1.008,-0.898 1.25,-1.406c1.164,0.21 1.936,0.667 3.063,1.219l1.218,-0.844c0.292,-0.299 0.63,-0.425 0.75,-0.781c0.034,-0.097 0.056,-0.19 0.063,-0.281c0.335,0.144 0.669,0.284 1.125,0.437c0.501,0.163 0.795,0.5 1.343,0.406c0.473,-0.085 0.811,-0.243 1.094,-0.437l1.219,-0.813c0.252,-0.173 0.641,-0.674 0.813,-0.906c0.489,0.196 1.324,0.438 1.78,0.438c0,0 0.253,-0.655 0.188,-0.688c-0.29,-0.22 -1.098,-0.422 -1.406,-0.688l0,0.001zm0.75,2.937c-0.166,0.074 -0.242,0.474 -0.156,1.188c0.729,1.637 1.293,5.022 -0.438,7.562c-1.812,2.144 -3.926,3.063 -6.906,3.438c-7.233,0.907 -10.44,-5.296 -10.75,-7.876c-0.064,0.174 -0.827,0.764 -0.781,1.032c0.596,4.957 5.91,8.478 10.718,7.875c3.204,-0.402 5.444,-1.397 7.344,-3.907l0.782,-1.062c0.133,-0.176 0.14,-0.358 0.25,-0.563c1.455,-2.706 1.347,-5.04 0.312,-7.468c-0.14,-0.177 -0.275,-0.264 -0.375,-0.219zm-4.688,1.875a1.547,1.547 0 0 0 -0.312,0.031a1.568,1.568 0 0 0 -1.281,1.813c0.152,0.853 0.96,1.43 1.812,1.281a1.568,1.568 0 0 0 1.282,-1.813a1.587,1.587 0 0 0 -1.5,-1.312l-0.001,0zm-8.374,1.469a1.865,1.865 0 0 0 -0.344,0.031a1.546,1.546 0 0 0 -1.25,1.813c0.152,0.853 0.96,1.398 1.812,1.25a1.568,1.568 0 0 0 1.282,-1.813a1.559,1.559 0 0 0 -1.5,-1.281zm6.374,3.406c-0.052,0.01 -0.092,0.087 -0.124,0.125a2.68,2.68 0 0 1 -1.532,0.813a2.696,2.696 0 0 1 -1.656,-0.283a0.249,0.249 0 0 0 -0.156,-0.031c-0.122,0.021 -0.21,0.128 -0.188,0.25c0.338,1.016 1.29,1.704 2.282,1.531c0.991,-0.172 1.66,-1.15 1.624,-2.219c-0.021,-0.121 -0.128,-0.208 -0.25,-0.187l0,0.001z"/>
  <path id="svg_2" fill-rule="evenodd" fill="#000000" d="m35.637,16.437a3.643,3.643 0 1 1 7.286,0a3.643,3.643 0 0 1 -7.286,0zm19.106,-6.042l1.324,0c0.397,0 0.718,0.321 0.718,0.718l0,7.949a0.718,0.718 0 0 1 -0.718,0.717l-1.324,0a0.717,0.717 0 0 1 -0.718,-0.717l0,-7.95c0,-0.396 0.321,-0.717 0.718,-0.717zm-0.602,8.008a1.266,1.266 0 1 1 2.532,0a1.266,1.266 0 0 1 -2.532,0zm0.132,0c0,-0.629 0.508,-1.139 1.134,-1.139s1.133,0.51 1.133,1.14s-0.508,1.138 -1.133,1.138s-1.134,-0.51 -1.134,-1.139zm1.32,0.067c0.219,0 0.341,-0.166 0.341,-0.383c0,-0.216 -0.188,-0.374 -0.405,-0.374l-0.592,0l0,1.38l0.206,0l0,-0.604l0.22,0l0.37,0.594l0.254,0l-0.394,-0.613zm-0.05,-0.164l-0.399,0l0,-0.41l0.405,0c0.108,0 0.198,0.103 0.198,0.21c0,0.108 -0.096,0.2 -0.203,0.2l-0.001,0zm-30.381,-2.254a3.235,3.235 0 0 1 3.23,-3.257c0.687,0 1.325,0.215 1.849,0.581a3.23,3.23 0 0 1 5.078,2.648l0,3.008c0,0.366 -0.352,0.718 -0.717,0.718l-1.325,0c-0.366,0 -0.718,-0.352 -0.718,-0.718l0,-3.008a0.47,0.47 0 0 0 -0.938,0l0,3.008c0,0.366 -0.352,0.718 -0.718,0.718l-1.325,0c-0.366,0 -0.718,-0.352 -0.718,-0.718l0,-2.98c0,-0.287 -0.21,-0.497 -0.469,-0.497a0.47,0.47 0 0 0 -0.469,0.469l0,3.008c0,0.366 -0.352,0.718 -0.717,0.718l-1.325,0c-0.366,0 -0.718,-0.352 -0.718,-0.718l0,-2.98zm-0.34,-2.21a0.717,0.717 0 0 0 -0.717,-0.717l-1.325,0a0.718,0.718 0 0 0 -0.718,0.717l-0.001,3.077a0.47,0.47 0 1 1 -0.939,0l0,-3.064a0.729,0.729 0 0 0 -0.717,-0.73l-1.325,0c-0.396,0 -0.718,0.266 -0.718,0.662l0,3.533c0,1.049 0.788,2.185 2.2,2.185l0.039,0c0.778,0 1.071,-0.26 1.376,-0.507c0.11,-0.142 0.166,-0.11 0.166,-0.028c0,0.795 -0.841,1.481 -1.524,1.475l-0.961,-0.01c-0.285,-0.003 -0.448,0.331 -0.447,0.516c0.003,0.281 0.006,0.409 0,0.72c-0.01,0.702 0.619,0.838 1.442,0.838l0.966,0c1.05,0 3.201,-1.265 3.202,-3.419l0.001,-5.248zm-22.062,2.596l0,5.354a0.718,0.718 0 0 1 -0.718,0.718l-1.324,0a0.718,0.718 0 0 1 -0.718,-0.719l0,-5.353a3.643,3.643 0 0 1 7.286,0c0,2.012 -1.655,3.643 -3.422,3.643c0,0 -0.662,0 -0.662,-0.662l0,-1.49c0,-0.404 0.384,-0.608 0.662,-0.65c0.425,-0.064 0.662,-0.353 0.662,-0.841a0.883,0.883 0 0 0 -1.766,0zm5.577,-6.072l1.323,0c0.397,0 0.718,0.321 0.718,0.717l0,7.95a0.717,0.717 0 0 1 -0.718,0.717l-1.323,0a0.718,0.718 0 0 1 -0.718,-0.718l0,-7.949c0,-0.396 0.321,-0.717 0.718,-0.717zm6.906,6.072l0,2.586c0,0.396 0.321,0.718 0.718,0.718l1.324,0a0.718,0.718 0 0 0 0.718,-0.718l0,-2.586a3.643,3.643 0 0 0 -7.287,0c0,2.012 1.656,3.643 3.423,3.643c0,0 0.662,0 0.662,-0.662l0,-1.49c0,-0.404 -0.385,-0.608 -0.662,-0.65c-0.425,-0.064 -0.662,-0.353 -0.662,-0.841a0.883,0.883 0 0 1 1.766,0zm30.775,0.022l0,-5.354a0.718,0.718 0 0 0 -0.717,-0.718l-1.325,0a0.718,0.718 0 0 0 -0.718,0.718l0,5.354a3.643,3.643 0 1 0 7.287,0c0,-2.012 -1.656,-3.643 -3.422,-3.643c0,0 -0.663,0 -0.663,0.662l0,1.49c0,0.404 0.385,0.608 0.662,0.65c0.426,0.064 0.663,0.353 0.663,0.841a0.883,0.883 0 1 1 -1.767,0zm5.568,-3.304l1.325,0c0.396,0 0.718,0.321 0.718,0.718l0,5.189a0.718,0.718 0 0 1 -0.718,0.717l-1.325,0a0.717,0.717 0 0 1 -0.717,-0.717l0,-5.19c0,-0.396 0.32,-0.717 0.717,-0.717zm0.998,-0.67a1.545,1.545 0 0 1 -2.146,-0.418l-1.122,-1.68l3.68,0c0.477,0.708 0.296,1.62 -0.412,2.097l0,0.001zm-14.187,4.018a0.883,0.883 0 1 1 1.766,0a0.883,0.883 0 0 1 -1.766,0z"/>
 </g>
</svg>