<svg width="901" height="214" xmlns="http://www.w3.org/2000/svg">

 <g>
  <title>Layer 1</title>
  <path id="svg_1" fill="#000000" d="m791.72,72.12c5.02,0 9.152,-2.61 9.71,-5.982l4.956,-56.05c0,-5.54 -6.49,-10.088 -14.65,-10.088c-8.152,0 -14.636,4.548 -14.636,10.089l4.953,56.049c0.545,3.371 4.677,5.982 9.684,5.982l-0.017,0m-30.293,17.507c2.518,-4.342 2.328,-9.222 -0.326,-11.39l-46.07,-32.317c-4.79,-2.774 -11.972,0.565 -16.048,7.634c-4.09,7.06 -3.365,14.945 1.412,17.72l51.013,23.752c3.189,1.182 7.537,-1.093 10.035,-5.432l-0.016,0.033m60.613,-0.03c2.514,4.339 6.84,6.615 10.032,5.432l51.013,-23.752c4.807,-2.774 5.49,-10.66 1.438,-17.72c-4.096,-7.062 -11.291,-10.408 -16.068,-7.634l-46.073,32.317c-2.634,2.165 -2.83,7.049 -0.326,11.39l-0.016,-0.033m-30.32,52.538c5.02,0 9.152,2.588 9.71,5.963l4.956,56.042c0,5.557 -6.49,10.095 -14.65,10.095c-8.152,0 -14.636,-4.538 -14.636,-10.095l4.953,-56.042c0.545,-3.375 4.677,-5.963 9.684,-5.963l-0.017,0m30.32,-17.511c2.514,-4.351 6.84,-6.607 10.032,-5.411l51.013,23.736c4.807,2.777 5.49,10.67 1.438,17.736c-4.096,7.039 -11.291,10.394 -16.068,7.624l-46.073,-32.287c-2.634,-2.182 -2.83,-7.069 -0.326,-11.407l-0.02,0m-60.609,0.003c2.518,4.335 2.328,9.222 -0.326,11.408l-46.07,32.286c-4.79,2.77 -11.972,-0.585 -16.048,-7.624c-4.09,-7.066 -3.365,-14.959 1.412,-17.736l51.013,-23.736c3.189,-1.196 7.537,1.06 10.035,5.412l-0.016,0"/>
  <path id="svg_2" fill="#000000" d="m501.122,135.92c0,1.72 -0.153,3.494 -0.624,5.052c-1.954,6.471 -8.654,11.943 -17.036,11.943c-6.989,0 -12.54,-3.97 -12.54,-12.355c0,-12.833 14.125,-16.377 30.204,-16.288l-0.004,11.647l0,0.001zm25.22,-22.364c0,-21.161 -9.042,-39.781 -39.594,-39.781c-15.683,0 -28.13,4.405 -34.924,8.331l4.976,17.012c6.209,-3.92 16.105,-7.165 25.47,-7.165c15.497,-0.043 18.035,8.776 18.035,14.42l0,1.336c-33.781,-0.05 -55.135,11.647 -55.135,35.475c0,14.56 10.876,28.197 29.782,28.197c11.617,0 21.347,-4.637 27.17,-12.072l0.575,0s3.853,16.142 25.124,9.966c-1.11,-6.713 -1.475,-13.879 -1.475,-22.496l-0.003,-33.223m-526.343,-68.599s22.075,90.454 25.6,105.134c4.112,17.135 11.523,23.443 32.88,19.184l13.783,-56.078c3.495,-13.936 5.834,-23.872 8.086,-38.034l0.392,0c1.581,14.312 3.824,24.141 6.7,38.08c0,0 5.608,25.46 8.485,38.828c2.88,13.364 10.896,21.792 31.818,17.204l32.844,-124.322l-26.51,0l-11.218,53.753c-3.016,15.64 -5.75,27.875 -7.86,42.18l-0.375,0c-1.917,-14.179 -4.358,-25.915 -7.421,-41.157l-11.67,-54.776l-27.626,0l-12.49,53.395c-3.535,16.23 -6.85,29.33 -8.95,43.159l-0.382,0c-2.156,-13.022 -5.026,-29.493 -8.132,-45.196c0,0 -7.415,-38.193 -10.023,-51.358l-27.931,0.004m210.734,90.963c0,1.72 -0.153,3.494 -0.631,5.052c-1.95,6.471 -8.654,11.943 -17.036,11.943c-6.99,0 -12.533,-3.97 -12.533,-12.355c0,-12.833 14.121,-16.377 30.203,-16.288l-0.003,11.647l0,0.001zm25.217,-22.364c0,-21.161 -9.042,-39.781 -39.588,-39.781c-15.687,0 -28.144,4.405 -34.934,8.331l4.97,17.012c6.208,-3.92 16.104,-7.165 25.472,-7.165c15.508,-0.043 18.046,8.776 18.046,14.42l0,1.336c-33.795,-0.05 -55.139,11.647 -55.139,35.475c0,14.56 10.87,28.197 29.762,28.197c11.633,0 21.357,-4.637 27.187,-12.072l0.568,0s3.864,16.142 25.13,9.966c-1.112,-6.713 -1.474,-13.879 -1.474,-22.496l0,-33.223m42.086,29.329l0,-97.928l-25.25,0l0,124.322l25.25,0l0,-26.394m330.316,-97.928l0,91.71c0,12.65 2.385,21.503 7.47,26.921c4.456,4.737 11.777,7.803 20.557,7.803c7.468,0 14.81,-1.425 18.275,-2.71l-0.326,-19.726c-2.578,0.63 -5.538,1.14 -9.59,1.14c-8.604,0 -11.481,-5.512 -11.481,-16.863l0,-35.09l21.988,0l0,-23.79l-21.988,0l0,-29.395l-24.905,0m-65.174,30.927l0,93.395l26.047,0l0,-47.82c0,-2.585 0.156,-4.837 0.565,-6.897c1.927,-10.022 9.587,-16.42 20.59,-16.42c3.016,0 5.175,0.328 7.514,0.66l0,-24.45c-1.963,-0.391 -3.295,-0.574 -5.737,-0.574c-9.72,0 -20.779,6.272 -25.42,19.726l-0.704,0l0,-17.62l-22.855,0m-247.462,0l0,93.395l25.377,0l0,-54.767c0,-2.57 0.302,-5.288 1.192,-7.644c2.103,-5.514 7.235,-11.972 15.424,-11.972c10.245,0 15.029,8.657 15.029,21.151l0,53.225l25.357,0l0,-55.434c0,-2.452 0.335,-5.408 1.06,-7.57c2.082,-6.276 7.61,-11.379 15.224,-11.379c10.381,0 15.364,8.505 15.364,23.211l0,51.169l25.374,0l0,-55.01c0,-29.007 -14.73,-40.49 -31.36,-40.49c-7.358,0 -13.172,1.843 -18.43,5.065c-4.415,2.72 -8.375,6.574 -11.83,11.64l-0.375,0c-4.01,-10.065 -13.445,-16.7 -25.74,-16.7c-15.795,0 -22.894,8.007 -27.2,14.797l-0.378,0l0,-12.69l-24.088,0"/>
  <path id="svg_3" fill="#000000" d="m895.88,164.738l0.383,0c0.508,0 0.834,-0.21 0.834,-0.522c0,-0.355 -0.306,-0.548 -0.778,-0.548c-0.162,0 -0.328,0.033 -0.438,0.033l0,1.046l0,-0.01l-0.001,0.001zm-0.059,2.518l-1.349,0l0,-4.395c0.306,-0.06 1.02,-0.167 1.934,-0.167c0.993,0 1.438,0.14 1.764,0.36c0.275,0.192 0.475,0.52 0.475,0.963c0,0.451 -0.415,0.833 -1.027,1l0,0.056c0.499,0.133 0.771,0.495 0.914,1.13c0.136,0.634 0.22,0.893 0.305,1.056l-1.528,0c-0.133,-0.163 -0.212,-0.552 -0.302,-0.94c-0.086,-0.445 -0.296,-0.668 -0.747,-0.668l-0.442,0l0.003,1.605zm0.558,-5.827c-1.937,0 -3.398,1.578 -3.398,3.59c0,1.96 1.465,3.559 3.451,3.559c1.994,0.033 3.459,-1.598 3.459,-3.591c0,-1.984 -1.465,-3.558 -3.482,-3.558l-0.03,0zm0.087,-1.193c2.7,0 4.853,2.126 4.853,4.75c0,2.655 -2.153,4.784 -4.89,4.784s-4.917,-2.132 -4.917,-4.783c0,-2.625 2.183,-4.75 4.917,-4.75l0.03,0"/>
 </g>
</svg>